<?xml version="1.0" encoding="utf-8"?>
<!-- Generator: Adobe Illustrator 24.1.2, SVG Export Plug-In . SVG Version: 6.00 Build 0)  -->
<svg version="1.1" id="Layer_1" xmlns="http://www.w3.org/2000/svg" xmlns:xlink="http://www.w3.org/1999/xlink" x="0px" y="0px"
	 viewBox="0 0 60 55.9" style="enable-background:new 0 0 60 55.9;" xml:space="preserve">
<style type="text/css">
	.st0{fill-rule:evenodd;clip-rule:evenodd;fill:#F40202;}
</style>
<g>
	<path class="st0" d="M42.4,43.5c-3.2,0-5.8,2.5-5.8,5.7c0,3.1,2.6,5.7,5.8,5.7s5.8-2.5,5.8-5.7C48.2,46.1,45.6,43.5,42.4,43.5z
		 M42.4,47.3c1.1,0,1.9,0.8,1.9,1.9c0,1-0.9,1.9-1.9,1.9c-1.1,0-1.9-0.8-1.9-1.9C40.5,48.2,41.4,47.3,42.4,47.3z"/>
	<path class="st0" d="M18.7,43.5c-3.2,0-5.8,2.5-5.8,5.7c0,3.1,2.6,5.7,5.8,5.7s5.8-2.5,5.8-5.7C24.4,46.1,21.9,43.5,18.7,43.5z
		 M18.7,47.3c1.1,0,1.9,0.8,1.9,1.9c0,1-0.9,1.9-1.9,1.9c-1.1,0-1.9-0.8-1.9-1.9C16.7,48.2,17.6,47.3,18.7,47.3z"/>
	<path class="st0" d="M8.4,24.6l-1.7-18c-0.1-1.1-1-1.9-2.1-1.9H3c-1,0-1.9-0.9-1.9-1.9S1.9,0.9,3,0.9h1.6c3.1,0,5.7,2.3,6,5.3v0.4
		h44.5c2.1,0,3.9,1.7,3.9,3.8c0,0.5-0.1,1.1-0.4,1.6l-8.5,18.1c-1.4,3-4.6,4.8-8,4.3c-5.5-0.7-17.5-1.9-24.6-2.7l-2.9,4.6
		c-0.1,0.2-0.1,0.4,0.1,0.5c0.1,0,0.1,0.1,0.2,0.1h36.3c1.1,0.1,1.9,1,1.8,2c-0.1,0.9-0.8,1.7-1.8,1.7H15c-2.3,0-4.2-1.9-4.2-4.2
		c0-0.8,0.2-1.5,0.6-2.2l2.1-3.3C10.7,30,8.7,27.5,8.4,24.6z M55.1,10.4H11l1.3,13.9c0.2,1.8,1.6,3.2,3.3,3.4c6.4,0.8,20.8,2.2,27,3
		c1.7,0.2,3.3-0.7,4-2.2L55.1,10.4z"/>
</g>
</svg>
