<?xml version="1.0" encoding="utf-8"?>
<!-- Generator: Adobe Illustrator 24.1.2, SVG Export Plug-In . SVG Version: 6.00 Build 0)  -->
<svg version="1.1" id="Layer_1" xmlns="http://www.w3.org/2000/svg" xmlns:xlink="http://www.w3.org/1999/xlink" x="0px" y="0px"
	 viewBox="0 0 60 60" style="enable-background:new 0 0 60 60;" xml:space="preserve">
<style type="text/css">
	.st0{fill:none;stroke:#F40202;stroke-width:1.93;stroke-miterlimit:10;}
</style>
<g>
	<path class="st0" d="M30.5,24.3c5.9,0,10.7-4.5,10.7-9.9s-4.8-9.9-10.7-9.9s-10.7,4.5-10.7,9.9S24.7,24.3,30.5,24.3z"/>
	<path class="st0" d="M50.8,50.3c0-10.4-9.1-18.9-20.3-18.9c-11.2,0-20.3,8.5-20.3,18.9c0,0.1,0,0.1,0,0.1v6.3h40.5v-6.2
		c0-0.1,0-0.1,0-0.1C50.8,50.3,50.8,50.3,50.8,50.3L50.8,50.3z"/>
	<path class="st0" d="M30.5,26.1c6.9,0,12.6-5.3,12.6-11.7S37.5,2.6,30.5,2.6S17.9,7.9,17.9,14.4S23.6,26.1,30.5,26.1z M30.5,4.4
		c5.9,0,10.7,4.5,10.7,9.9s-4.8,9.9-10.7,9.9s-10.7-4.5-10.7-9.9S24.7,4.4,30.5,4.4z"/>
	<path class="st0" d="M52.7,50.3c0-11.4-10-20.7-22.2-20.7c-12.3,0-22.2,9.3-22.2,20.7c0,0.1,0,0.1,0,0.1v7.2c0,0.5,0.4,0.9,1,0.9
		h42.4c0.5,0,1-0.4,1-0.9v-7.2L52.7,50.3C52.7,50.3,52.7,50.3,52.7,50.3z M50.8,50.5v6.2H10.3v-6.3c0-0.1,0-0.1,0-0.1
		c0-10.4,9.1-18.9,20.3-18.9s20.3,8.5,20.3,18.9l0,0c0,0.1,0,0.1,0,0.1C50.8,50.5,50.8,50.5,50.8,50.5z"/>
</g>
</svg>
