<svg enable-background="new 0 0 60 60" viewBox="0 0 60 60" xmlns="http://www.w3.org/2000/svg"><path d="m16.3 4.5c-3.9 0-7.9 1.5-10.8 4.7-6 6.2-5.9 16.2 0 22.5l23.1 24.2c.8.8 2 .8 2.8.1l.1-.1c7.7-8.1 15.4-16.1 23.1-24.2 6-6.2 6-16.2 0-22.5-6-6.2-15.8-6.2-21.7 0l-2.9 2.9-2.8-3c-3-3-6.9-4.6-10.9-4.6zm0 3.9c2.9 0 5.7 1.2 8 3.5l4.3 4.5c.8.8 2 .8 2.8.1l.1-.1 4.2-4.4c4.5-4.7 11.5-4.7 15.9 0 4.5 4.7 4.5 12.3 0 16.9-7.2 7.6-14.4 15.1-21.6 22.6l-21.7-22.6c-4.5-4.7-4.5-12.3 0-16.9 2.3-2.4 5.1-3.6 8-3.6z" fill="#f40202"/></svg>